<?xml version="1.0" encoding="UTF-8"?>
<svg version="1.1" viewBox="0 0 1600 1600" width="1280" height="1280" xmlns="http://www.w3.org/2000/svg">
<path transform="translate(876,129)" d="m0 0c0.632 0.498 1.26 0.995 1.92 1.51 10.9 8.6 21.4 17.6 31.8 26.7 11.3 9.88 22.8 19.4 35.3 27.7 0.847 0.584 1.69 1.17 2.57 1.77 13.3 8.9 28.2 15.4 44.4 12.7 36.2-7.32 70.6-27.5 103-45 26.6-14.4 57.5-28.3 88.3-20.9 11.9 3.71 21.3 9.63 30 18.4 0.709 0.687 1.42 1.37 2.15 2.08 13.2 13.6 18.1 33.3 18.2 51.7-0.602 35.1-18.8 66.6-39.9 93.4-1.74 2.22-3.45 4.48-5.16 6.73-3.1 3.97-6.44 7.7-9.84 11.4-1.28 1.41-2.56 2.83-3.79 4.28-5.29 6.21-11 11.9-16.8 17.7-1.74 1.73-3.47 3.47-5.2 5.21-5.17 5.17-10.3 10.3-15.9 15-2.57 2.2-5.02 4.51-7.5 6.81-4.59 4.24-9.29 8.28-14.2 12.2-2.24 1.8-4.46 3.62-6.67 5.46-8.84 7.32-17.9 14.1-27.4 20.6-1.82 1.25-3.63 2.52-5.43 3.79-6.22 4.35-12.5 8.55-19 12.6-2.82 1.78-5.36 3.5-7.58 6.01 1.03 0.485 2.05 0.969 3.11 1.47 8.61 4.14 16.4 8.57 23.9 14.5l3.12 2.25c11 10.6 19.5 25.1 20.2 40.6 0.343 19.8-4.09 35.1-18 49.8-6.02 6.01-11.8 10.9-19.3 15-2.28 1.24-2.28 1.24-2.97 4.32 0.661 0.218 1.32 0.436 2 0.66 4.01 1.79 7.38 4.22 10.9 6.78 0.751 0.536 1.5 1.07 2.27 1.62 15.9 11.4 30.7 24.1 45 37.4 2.58 2.38 5.2 4.72 7.83 7.05 7.45 6.69 14.6 13.7 21.1 21.4 1.9 2.18 3.85 4.3 5.81 6.42 5.61 6.05 10.9 12.3 16.1 18.7 1.01 1.23 2.02 2.46 3.03 3.68 12.5 15.2 24 31 35 47.3 0.897 1.33 1.79 2.65 2.69 3.98 20.9 31 39.6 63.8 55.3 97.8 0.909 1.96 1.83 3.92 2.76 5.88 1.78 3.76 3.53 7.54 5.26 11.3 0.425 0.93 0.85 1.86 1.29 2.82 36.4 80 61.1 166 74 320-0.00149 1.31-0.00298 2.62-0.00452 3.96-0.0326 20-0.564 39.6-3.31 59.4-0.145 1.07-0.289 2.15-0.438 3.25-7.85 56.4-28.5 113-66.6 156-1.19 1.36-2.38 2.73-3.57 4.09-13.6 15.6-13.6 15.6-20.2 21-1.74 1.46-3.45 2.96-5.15 4.48-14.6 13-30.9 24-48.1 33.4-1.27 0.699-1.27 0.699-2.56 1.41-79.8 43.8-174 56.3-394 64.8-5.31-0.00754-10.6-0.00482-15.9 0.0036-47.6 0.0734-95.2-0.489-143-4.07-1.14-0.0833-2.28-0.167-3.45-0.252-20.9-1.54-41.8-3.73-62.6-6.63-2.19-0.303-4.38-0.598-6.58-0.891-56.8-7.61-115-21.6-166-48.4-1.99-1.04-3.99-2.05-5.99-3.05-20.8-10.6-39.3-24.6-56.9-39.9-0.756-0.659-0.756-0.659-1.53-1.33-31-27.3-53.7-62.7-69.5-101-0.307-0.742-0.615-1.48-0.932-2.25-33.6-82.6-27.9-178-12.4-264 0.49-2.75 0.951-5.51 1.42-8.27 13.5-77.3 41.5-152 75.9-223 0.49-1.01 0.979-2.01 1.48-3.05 7.3-15 15.1-29.6 23.5-43.9 0.758-1.3 0.758-1.3 1.53-2.62 17.3-29.6 36.7-57.8 58.1-84.6 1.49-1.89 2.96-3.79 4.42-5.7 0.755-0.979 0.755-0.979 1.52-1.98 0.969-1.26 1.93-2.52 2.89-3.79 1.13-1.46 2.32-2.87 3.53-4.26h2c0.402-0.885 0.402-0.885 0.812-1.79 1.2-2.23 2.45-3.77 4.2-5.6 0.594-0.628 1.19-1.26 1.8-1.9 0.619-0.646 1.24-1.29 1.88-1.96 3.67-3.85 7.3-7.7 10.8-11.7 3.65-4.21 7.53-8.16 11.5-12.1 0.665-0.668 1.33-1.34 2.01-2.03 3.95-3.94 8.01-7.69 12.2-11.3 2.37-2.05 4.65-4.19 6.94-6.32 5.74-5.23 11.8-10 17.9-14.8 2.07-1.59 4.14-3.2 6.2-4.8 7.33-5.68 14.7-11.2 22.5-16.1 2.46-1.56 2.46-1.56 4.22-4.59-1.06-0.371-1.06-0.371-2.14-0.75-13.6-5.94-24.7-18.7-31.9-31.2-0.4-0.642-0.799-1.28-1.21-1.95-7.23-12.6-7.17-28.5-3.62-42.1 5.04-17.8 16.8-32.1 32.9-41.1 12.8-6.85 12.8-6.85 15.9-6.85-3.98-4.32-8.32-7.39-13.2-10.6-1.62-1.06-3.24-2.13-4.86-3.2l-2.48-1.63c-17.3-11.5-33.8-24-49.4-37.6l-2.16-1.85c-5.41-4.67-10.7-9.52-15.9-14.4-1.52-1.39-3.05-2.78-4.57-4.17-6.84-6.21-13.5-12.6-20-19.1-1.53-1.53-3.06-3.04-4.6-4.56-5.64-5.61-10.9-11.3-15.8-17.6-1.81-2.24-3.7-4.35-5.67-6.44-19.1-21.4-35-48.1-42.2-75.9-0.318-1.17-0.637-2.35-0.965-3.55-3.9-16.4-3.4-33.4 1.96-49.4l1.03-3.16c5.81-15.7 17.1-28.3 31.8-36.2 24-10.9 47.3-7.41 71.2 1.53 7.17 2.79 14 6.13 20.8 9.69 3.38 1.75 6.8 3.43 10.2 5.12 7.85 3.89 15.7 7.86 23.4 12 47.2 27.7 47.2 27.7 99.3 31.1 20-6.46 36.4-19.6 52-33.2 0.637-0.552 1.27-1.1 1.93-1.67 1.26-1.09 2.51-2.19 3.75-3.29 4.37-3.81 4.37-3.81 6.59-3.81v-2c1.66-1.49 1.66-1.49 4.06-3.31 3.84-2.98 7.52-6.06 11.1-9.29 12.5-11.1 26-20.5 40.8-28.4 1.02-0.554 2.03-1.11 3.08-1.68 41.4-21.8 88.7-10.1 124 17.7zm-128 44c-0.878 0.696-1.76 1.39-2.66 2.11-6.64 5.36-13.1 11-19.5 16.6-5.38 4.68-10.8 9.33-16.2 13.9-1.53 1.31-3.05 2.62-4.57 3.94-30.9 26.4-64.9 41.9-106 39.4-37.1-3.95-72.6-25.1-104-43.8-32.1-19.1-32.1-19.1-67.9-25.2-6.1 4-8.79 12.4-11 19-2.66 27.2 14 51.3 30.4 71.6 1.51 1.8 3.04 3.59 4.56 5.38 0.947 1.13 1.89 2.27 2.84 3.4 5.67 6.74 11.5 13.1 17.8 19.3 1.81 1.81 3.44 3.58 5.02 5.58 2.48 2.94 5.15 5.28 8.07 7.77 2.52 2.23 4.87 4.59 7.24 6.98 4.18 4.22 8.48 8.16 13 12 1.49 1.29 1.49 1.29 3.01 2.61 14.6 12.6 29.6 24.8 45 36.4 1.33 1.01 2.66 2.02 3.99 3.02 14.1 10.6 28.3 21 43 30.6 2.29 1.52 4.57 3.05 6.85 4.59 0.818 0.55 1.64 1.1 2.48 1.67 1.6 1.08 3.2 2.16 4.79 3.24 0.725 0.487 1.45 0.973 2.2 1.47 0.964 0.651 0.964 0.651 1.95 1.31 3.55 2.14 6.58 2.18 10.6 2.19 1.85 0.00761 1.85 0.00761 3.74 0.0154 1.38 6.02e-4 2.75 0.0011 4.13 0.00151 1.46 0.00401 2.91 0.00845 4.37 0.0133 4.01 0.012 8.02 0.0176 12 0.0222 4.32 0.00595 8.65 0.0176 13 0.0283 10.4 0.0245 20.9 0.0392 31.3 0.0521 2.95 0.00371 5.9 0.00768 8.85 0.0118 18.3 0.0252 36.6 0.0473 54.9 0.0597 4.24 0.00293 8.49 0.00589 12.7 0.00891 1.58 0.00112 1.58 0.00112 3.2 0.00226 17.1 0.0127 34.2 0.0459 51.3 0.0875 17.5 0.0424 35.1 0.066 52.6 0.0712 9.85 0.00341 19.7 0.0152 29.5 0.0481 8.39 0.028 16.8 0.039 25.2 0.0278 4.28-0.00519 8.56-0.00229 12.8 0.0225 3.92 0.0225 7.84 0.0218 11.8 0.0028 1.42-0.0028 2.83 0.0028 4.25 0.0178 8.5 0.0847 14.4-0.623 21.4-5.63 1.11-0.711 2.22-1.42 3.37-2.15 1.56-1.06 1.56-1.06 3.14-2.14 0.856-0.581 0.856-0.581 1.73-1.17 1.82-1.24 3.63-2.48 5.45-3.72 1.26-0.863 2.53-1.73 3.79-2.59 7.65-5.22 15.3-10.5 22.8-15.9 1.3-0.955 2.61-1.91 3.92-2.86 9.6-6.97 19.1-14.1 28.3-21.6 2.99-2.43 6.03-4.8 9.08-7.17 5.55-4.31 10.9-8.76 16-13.5 2.64-2.37 5.36-4.59 8.12-6.81 3.75-3.03 7.22-6.14 10.6-9.62 1.65-1.65 3.35-3.14 5.13-4.64 5.68-4.94 11-10.3 16.3-15.6 1.78-1.78 3.57-3.55 5.36-5.32 6.8-6.77 13-13.7 19-21.2 1.56-1.79 3.12-3.59 4.69-5.38 15.9-19.2 32.4-43.3 31.7-69.2-0.929-7.77-4.27-15.6-9.78-21.3-2.3-1.62-4.37-1.91-7.14-1.64-30.4 5.9-57.4 22.2-84.1 37.3-1.88 1.06-3.77 2.12-5.65 3.18-1.74 0.979-3.48 1.96-5.21 2.95-16.5 9.15-34.2 17.6-52.6 22.1-0.761 0.192-1.52 0.383-2.31 0.581-33.1 8.07-64.6 2.68-93.7-14.6-16.2-9.98-30.7-22.4-44.7-35.2-4.36-3.99-8.84-7.77-13.4-11.5-2.01-1.64-3.97-3.29-5.92-5-12.5-10.9-25.8-19.5-40.9-26.3-0.846-0.383-1.69-0.766-2.56-1.16-25.2-9.42-49.4 6.09-68.4 21.2zm-191 300v2h-2c-0.639 1.07-1.28 2.14-1.94 3.25-0.36 0.603-0.719 1.21-1.09 1.83-3.26 6.44-3.12 15-1.14 21.8 3.21 7.09 7.91 11 14.7 14.4 5.69 1.6 11.4 1.83 17.3 1.82 1.15 0.00263 1.15 0.00263 2.32 0.00531 2.56 0.00465 5.12 0.0022 7.68-2.34e-4 1.86 0.00187 3.71 0.00417 5.57 0.00687 5.1 0.00612 10.2 0.00598 15.3 0.00481 5.5-2.04e-4 11 0.00531 16.5 0.0101 10.8 0.00831 21.5 0.0111 32.3 0.0116 8.75 4.75e-4 17.5 0.00253 26.3 0.0057 20.8 0.00737 41.5 0.0135 62.3 0.013 0.664-1.56e-5 1.33-3.12e-5 2.01-4.72e-5 3.37-8.31e-5 6.73-1.82e-4 10.1-2.85e-4 0.669-1.99e-5 1.34-3.99e-5 2.03-6.04e-5 1.35-4.04e-5 2.7-8.22e-5 4.06-1.25e-4 21-6.13e-4 42.1 0.00689 63.1 0.0206 23.6 0.0154 47.3 0.024 70.9 0.023 12.5-3.32e-4 25 0.00242 37.5 0.0132 10.7 0.0091 21.3 0.0113 32 0.00449 5.44-0.00327 10.9-0.00331 16.3 0.00535 4.98 0.00785 9.95 0.00644 14.9-0.00228 1.8-0.00154 3.6 2.9e-4 5.4 0.00586 18.2 0.531 18.2 0.531 33.4-8.08 6.14-6.6 7.71-12.1 7.52-21.1-0.964-8.05-5.19-13.6-11.2-18.7-5.09-3.24-10.2-3.67-16.1-3.63-0.785-0.00321-1.57-0.00641-2.38-0.00972-2.63-0.00831-5.27-0.00237-7.9 0.0035-1.91-0.00302-3.81-0.00691-5.72-0.0116-5.24-0.0103-10.5-0.00809-15.7-0.00382-5.65 0.00246-11.3-0.00654-16.9-0.014-11.1-0.0128-22.1-0.0145-33.2-0.0122-8.99 0.00178-18 3.69e-5 -27-0.00422-1.92-8.93e-4 -1.92-8.93e-4 -3.88-0.0018-2.6-0.00121-5.2-0.00243-7.79-0.00364-17.5-0.00779-34.9-0.0117-52.4-0.00768-0.682 1.56e-4 -1.36 3.13e-4 -2.07 4.74e-4 -3.46 8.06e-4 -6.92 0.00165-10.4 0.00251-1.03 2.57e-4 -1.03 2.57e-4 -2.08 5.18e-4 -1.39 3.47e-4 -2.78 6.95e-4 -4.17 0.00105-21.6 0.00536-43.2-0.00257-64.9-0.021-24.3-0.0207-48.6-0.0314-72.9-0.0274-12.9 0.00191-25.7-5.97e-4 -38.6-0.0147-10.9-0.0119-21.9-0.0133-32.8-0.00121-5.59 0.0059-11.2 0.00695-16.8-5e-3 -5.11-0.0108-10.2-0.00781-15.3 0.00626-1.85 0.00266-3.7 2.45e-4 -5.55-0.00774-2.52-0.0101-5.03-0.00169-7.55 0.0113-1.08-0.011-1.08-0.011-2.18-0.0221-6.52 0.0697-13.2 1.77-18 6.4zm43 102c-2.9 1.73-5.9 3.25-8.9 4.8-20.8 10.8-40.2 25.4-58.1 40.4-0.565 0.474-1.13 0.947-1.71 1.44-6.52 5.48-12.9 11-18.8 17.1-1.45 1.43-1.45 1.43-3.45 2.43v2h-2v2l-1.82 0.797c-2.31 1.28-3.41 2.41-5.05 4.45-3.45 4.1-7.18 7.82-11 11.6-4.98 4.92-9.6 9.95-13.9 15.4-1.93 2.43-3.93 4.78-5.96 7.12-7.91 9.15-15.1 18.9-22.2 28.6-0.479 0.651-0.957 1.3-1.45 1.97-36.4 49.8-65.4 105-88.5 162-0.273 0.674-0.546 1.35-0.828 2.04-30.7 76-53.8 160-56.4 253-0.00424 0.984-0.00424 0.984-0.00857 1.99-0.0148 3.48-0.0242 6.97-0.0285 10.4-0.00435 2.8-0.0181 5.61-0.041 8.41-0.204 25.5 1.2 50.7 6.28 75.7 0.189 0.943 0.378 1.89 0.573 2.86 9.31 45.5 28.4 84.6 60.4 118 0.636 0.677 1.27 1.35 1.93 2.05 4.95 5.13 10.5 9.54 16.1 13.9 0.893 0.71 1.79 1.42 2.71 2.15 53.1 41 120 58.5 185 68.8 0.709 0.113 1.42 0.226 2.15 0.342 34.9 5.51 70 8.25 105 10.3 0.996 0.0608 1.99 0.122 3.02 0.184 37 2.23 74 2.29 111 2.26 6.07-0.00571 12.1-0.00229 18.2 0.00342 37.5 0.0302 74.8-0.477 112-2.82 2.13-0.133 4.26-0.264 6.39-0.396 22.3-1.38 44.6-3.07 66.8-5.92 1.67-0.211 3.34-0.421 5-0.632 74.5-9.5 153-27.1 213-75.4 1.08-0.851 2.16-1.7 3.24-2.55 3.96-3.13 3.96-3.13 7.76-6.45v-2c0.86-0.373 0.86-0.373 1.74-0.754 8.29-4.57 14.5-13.9 20.3-21.2 0.754-0.96 1.51-1.92 2.29-2.91 13.4-17.5 23.1-36.5 30.7-57.1 0.276-0.736 0.552-1.47 0.836-2.23 8.3-22.5 12.4-46.1 15.2-69.8 0.119-0.944 0.237-1.89 0.359-2.86 3.96-32.7 3.15-67.5-0.359-100-0.129-1.24-0.258-2.48-0.391-3.77-6.59-62.7-20.8-125-42.6-184-0.385-1.05-0.77-2.1-1.17-3.18-21.1-57.1-46.8-113-80.8-164-0.529-0.791-1.06-1.58-1.6-2.4-20.3-30.3-42.4-60.3-68.6-85.8-1.75-1.81-1.75-1.81-2.75-3.81h-2c-0.66-1.32-1.32-2.64-2-4h-2c-0.33-0.99-0.66-1.98-1-3-1.62-1.65-1.62-1.65-3.62-3.25-2.69-2.28-5.24-4.58-7.69-7.12-4.05-4.11-8.51-7.67-13-11.3-1.88-1.51-3.74-3.04-5.59-4.57-7.17-5.9-14.4-11.6-22.1-16.8-1.59-1.1-1.59-1.1-3.2-2.22-29.3-21.2-29.3-21.2-62.8-30.9-1.26-0.00754-2.52-0.0151-3.81-0.0229-1.4-0.00337-2.81-0.00662-4.21-0.00978-1.49-0.00688-2.97-0.0142-4.46-0.0218-4.09-0.0198-8.19-0.0331-12.3-0.0453-3.51-0.0113-7.02-0.0262-10.5-0.0411-33.3-0.141-66.6-0.206-99.9-0.259-4.34-0.00701-8.68-0.0141-13-0.0214-1.62-0.00269-1.62-0.00269-3.27-0.00544-17.4-0.03-34.9-0.0947-52.3-0.173-17.9-0.08-35.8-0.126-53.8-0.139-10.1-0.00839-20.1-0.0319-30.2-0.0947-8.57-0.0534-17.1-0.0759-25.7-0.0589-4.37 0.0077-8.73 0.00132-13.1-0.0453-25.2-0.261-25.2-0.261-48.4 8.89z" fill="#000002"/>
<path transform="translate(583 829)" d="m0 0c1.62-0.0106 1.62-0.0106 3.27-0.0215 1.18 0.00248 2.35 0.00495 3.56 0.00751 1.25-0.00511 2.49-0.0102 3.78-0.0155 3.41-0.0115 6.83-0.014 10.2-0.0114 2.86 0.00107 5.72-0.00382 8.58-0.00861 6.76-0.0111 13.5-0.0115 20.3-0.00549 6.94 0.00602 13.9-0.00622 20.8-0.0276 5.98-0.0177 12-0.0236 17.9-0.0204 3.56 0.0018 7.12-6.97e-4 10.7-0.0147 3.99-0.0151 7.97-0.00553 12 0.00601 1.16-0.00764 2.31-0.0153 3.51-0.0232 24.1 0.153 42.8 10.3 59.6 27.1 11.4 12.4 17.5 28 20.3 44.3 0.133 0.74 0.266 1.48 0.402 2.24 3.25 21.4-3.59 43-16.3 60.3-6.08 7.83-12.2 15-21.1 19.4 1.5 3.71 3.64 5.59 6.69 8.12 16.9 14.9 20 34.6 22.1 55.9 0.967 9.03 1.94 16.9 9.18 23 0.86 0.669 0.86 0.669 1.74 1.35 5.49 4.4 8.6 8.44 9.71 15.5 0.374 6.54-0.556 11.1-4.65 16.3-5.38 5.52-10.6 6.23-18.2 6.35-6.88-0.0677-12.6-1.06-18.6-4.5-0.638-0.358-1.28-0.717-1.93-1.09-1.69-1.04-1.69-1.04-4.07-2.91v-2c-0.639-0.268-1.28-0.536-1.94-0.812-2.06-1.19-2.06-1.19-3.06-4.19h-2c-12.3-16.5-14.6-35.7-15.4-55.8-0.408-7.82-1.88-13.9-6.81-20.1-10.1-8.03-19.9-10.3-32.8-10.4-0.772-0.0099-1.54-0.0198-2.34-0.03-2.53-0.0314-5.05-0.0563-7.58-0.0811-1.76-0.0206-3.52-0.0416-5.28-0.063-4.62-0.055-9.24-0.104-13.9-0.153-4.72-0.0504-9.44-0.106-14.2-0.161-9.25-0.107-18.5-0.209-27.7-0.307 9.82e-4 0.69 0.00196 1.38 0.00298 2.09 0.0212 17.4 0.0359 34.8-0.156 52.3-0.0236 2.55-0.0377 5.11-0.043 7.66-0.00929 3.77-0.0501 7.54-0.0974 11.3 0.0059 1.69 0.0059 1.69 0.0119 3.42-0.145 7.89-1.58 15.2-7.45 20.9-6.29 4.74-12.6 5.02-20.3 4.31-7.24-1.76-13.2-5.34-18-11-3.61-6.58-4.58-12.8-4.51-20.2-0.00624-0.973-0.0125-1.95-0.0189-2.95-0.0159-3.23-0.00336-6.47 0.00927-9.7-0.00542-2.33-0.0125-4.66-0.0212-6.99-0.0182-6.31-0.0112-12.6 0.00152-18.9 0.00912-5.94 0.00215-11.9-0.00371-17.8-0.0114-12.5 0.00168-25 0.0232-37.5 0.0179-10.7 0.0148-21.4-0.00368-32.1-0.0214-12.4-0.0298-24.9-0.0176-37.3 0.00623-6.58 0.00709-13.2-0.00615-19.7-0.0116-6.19-0.0035-12.4 0.0196-18.6 0.00528-2.27 0.00379-4.53-0.00505-6.8-0.011-3.1 0.00284-6.2 0.0227-9.3-0.0134-1.34-0.0134-1.34-0.027-2.7 0.095-7.67 2-14.5 7.03-20.4 0.825-0.681 1.65-1.36 2.5-2.06 0.99-0.835 0.99-0.835 2-1.69 4.06-2.66 7.62-3.56 12.4-3.57zm26.6 45.3c-1.27 3.82-1.14 7.42-1.13 11.4-0.00175 0.857-0.0035 1.71-0.00531 2.6-0.0044 2.84-0.00149 5.67 0.00189 8.51-6.73e-4 1.97-0.00164 3.93-0.0029 5.9-0.00148 4.12 6.72e-4 8.24 0.00534 12.4 0.0057 5.29 0.00241 10.6-0.00357 15.9-0.0036 4.06-0.00247 8.12 1.28e-4 12.2 6.69e-4 1.95-1.59e-4 3.91-0.00248 5.86-0.00253 2.72 0.00131 5.44 0.0069 8.17-0.00202 0.815-0.00405 1.63-0.00613 2.47-0.33 3.64-0.33 3.64 1.14 6.68 2.69 0.111 5.35 0.157 8.03 0.161 1.26 0.00745 1.26 0.00745 2.55 0.015 2.8 0.0147 5.61 0.0214 8.41 0.0269 1.95 0.00575 3.9 0.0115 5.84 0.0173 4.09 0.0105 8.19 0.0164 12.3 0.0198 5.23 0.00546 10.5 0.0294 15.7 0.058 4.03 0.0187 8.06 0.0238 12.1 0.0254 1.93 0.00301 3.85 0.011 5.78 0.0242 15.7 0.447 15.7 0.447 30-5.12 13.1-13.5 16.8-29.6 16.7-47.9-0.177-7.08-0.857-13.1-4.42-19.4-0.447-0.791-0.895-1.58-1.36-2.4-4.78-7.71-10.6-14.6-19.6-17.2-3.55-0.751-7.17-0.566-10.8-0.551-0.878-1.46e-4 -1.76-2.92e-4 -2.66-4.43e-4 -2.9 6.96e-4 -5.8 0.00847-8.7 0.0163-2.01 0.00187-4.02 0.00329-6.04 0.00429-5.29 0.00382-10.6 0.0136-15.9 0.0247-5.4 0.0102-10.8 0.0148-16.2 0.0198-10.6 0.0107-21.2 0.0278-31.8 0.0488z" fill="#000002"/>
<path transform="translate(1e3 912)" d="m0 0c1.58 1.32 3.15 2.65 4.72 3.99 0.686 0.583 1.37 1.17 2.08 1.77 19.1 17.7 30.3 46.8 31.3 72.5 0.0817 3.51 0.0826 7.02 0.0522 10.5-0.00271 0.738-0.00542 1.48-0.00821 2.24-0.0667 12-1.07 23.4-4.43 35-0.187 0.68-0.374 1.36-0.567 2.06-7.1 25.4-24.5 47.7-47.1 61.1-20.9 11.4-46.4 14.2-69.3 7.82-13.3-4.15-26.2-10.7-36.3-20.4-1.6-1.65-1.6-1.65-3.67-2.57 0.163 0.832 0.326 1.66 0.494 2.52 0.545 3.75 0.635 7.39 0.607 11.2-0.00236 1.12-0.00236 1.12-0.00478 2.26-0.00745 2.45-0.0235 4.9-0.0416 7.35-0.00571 0.843-0.0114 1.69-0.0173 2.55-0.0315 4.46-0.0703 8.92-0.115 13.4-0.0437 4.58-0.0596 9.17-0.0692 13.8-0.0129 3.55-0.0477 7.09-0.0881 10.6-0.0154 1.69-0.0226 3.38-0.0211 5.07 7.81e-4 10.2-0.252 19.3-7.49 27.2-4.83 4.67-10.1 6.11-16.7 6.39-6.98-0.201-12.8-2.57-17.9-7.4-5.55-6.46-6.23-14.6-6.15-22.7-0.00553-1.04-0.0111-2.09-0.0168-3.16-0.0135-3.47 0.00133-6.95 0.0163-10.4-0.00379-2.5-0.00929-5-0.0164-7.5-0.0125-6.07-0.00641-12.1 0.00868-18.2 0.0169-7.08 0.0136-14.2 0.00991-21.2-0.00587-12.6 0.00826-25.3 0.0329-37.9 0.0239-12.2 0.031-24.5 0.0205-36.7-0.0114-13.4-0.0133-26.7 0.0011-40.1 0.00153-1.42 0.00305-2.85 0.00456-4.27 7.58e-4 -0.701 0.00152-1.4 0.0023-2.12 0.00473-4.93 0.0029-9.86-0.00136-14.8-0.00545-6.64 0.00535-13.3 0.027-19.9 0.00556-2.43 0.00604-4.87 0.00105-7.3-0.00596-3.32 0.00657-6.65 0.0238-9.97-0.00601-0.962-0.012-1.92-0.0182-2.92 0.0714-7.59 1.43-14.4 6.78-20.3 5.96-5.07 12.3-7.18 20-6.73 7.88 1.03 11.9 3.9 17 10.1 3.59 4.99 3.87 9.24 3.63 15.3 2.7-1.06 3.97-1.97 5.78-4.28 10.9-13.4 30.2-22.5 47.1-24.5 26.1-2.44 50 4.26 70.4 20.8zm-109 41.2c-12.9 15.4-17.5 35-16.3 54.8 2.14 19.9 9.29 36.9 25 50 13.8 9.57 28.5 12.6 44.9 10.2 14.9-2.76 27.1-11 36.1-23.2 4.23-7.24 7.91-14.8 10-23 0.306-1.15 0.306-1.15 0.617-2.32 4.5-20.1 1.21-42.1-9.43-59.7-8.62-12.5-20.5-22.2-35.7-25.4-21.8-2.88-40.1 2.64-55.2 18.7z" fill="#000002"/>
</svg>
